<?xml version="1.0" encoding="UTF-8" standalone="no"?>
<svg
   xmlns:dc="http://purl.org/dc/elements/1.1/"
   xmlns:cc="http://creativecommons.org/ns#"
   xmlns:rdf="http://www.w3.org/1999/02/22-rdf-syntax-ns#"
   xmlns:svg="http://www.w3.org/2000/svg"
   xmlns="http://www.w3.org/2000/svg"
   xmlns:sodipodi="http://sodipodi.sourceforge.net/DTD/sodipodi-0.dtd"
   xmlns:inkscape="http://www.inkscape.org/namespaces/inkscape"
   width="400"
   height="400"
   viewBox="0 0 399.99999 399.99999"
   version="1.1"
   id="svg8"
   inkscape:version="1.0.1 (3bc2e813f5, 2020-09-07)"
   sodipodi:docname="robot3a.svg">
  <defs
     id="defs2" />
  <sodipodi:namedview
     id="base"
     pagecolor="#ffffff"
     bordercolor="#666666"
     borderopacity="1.0"
     inkscape:pageopacity="0.0"
     inkscape:pageshadow="2"
     inkscape:zoom="1.3383334"
     inkscape:cx="-13.239066"
     inkscape:cy="180.28274"
     inkscape:document-units="px"
     inkscape:current-layer="layer1"
     inkscape:document-rotation="0"
     showgrid="true"
     units="px"
     width="400mm"
     inkscape:snap-object-midpoints="false"
     showguides="false"
     inkscape:window-width="1920"
     inkscape:window-height="1017"
     inkscape:window-x="-8"
     inkscape:window-y="-8"
     inkscape:window-maximized="1">
    <inkscape:grid
       type="xygrid"
       id="grid833"
       spacingx="2"
       spacingy="2"
       dotted="false" />
  </sodipodi:namedview>
  <metadata
     id="metadata5">
    <rdf:RDF>
      <cc:Work
         rdf:about="">
        <dc:format>image/svg+xml</dc:format>
        <dc:type
           rdf:resource="http://purl.org/dc/dcmitype/StillImage" />
        <dc:title></dc:title>
      </cc:Work>
    </rdf:RDF>
  </metadata>
  <g
     inkscape:label="Layer 1"
     inkscape:groupmode="layer"
     id="layer1">
    <path
       id="rect835"
       style="opacity:0.999;fill:#000000;stroke:#000000;stroke-width:0;stroke-linecap:square;stroke-miterlimit:4;stroke-dasharray:none"
       d="m 95.511714,289.71875 c -13.63691,0 -24.615234,11.15 -24.615234,25 v 25 h 160 v -25 C 230.89648,302.15345 221.85959,291.81068 210,290 l -44.07618,39.42187 c -13.9881,12.51106 -35.4987,11.31232 -48.00976,-2.67578 -9.33986,-10.44251 -11.03487,-25.07437 -5.47656,-37.02734 z" />
    <rect
       style="opacity:0.999;fill:#ff0000;stroke:#000000;stroke-width:0;stroke-linecap:square;stroke-miterlimit:4;stroke-dasharray:none"
       id="rect842"
       width="200"
       height="20"
       x="50.896481"
       y="339.52505"
       ry="10" />
    <path
       id="rect861"
       style="fill:#000000;fill-opacity:1;stroke:none;stroke-width:20;stroke-linecap:square;stroke-miterlimit:4;stroke-dasharray:none"
       d="m 315.33442,66.634292 22.85713,-0.025 c 5.06513,-0.0055 9.14675,3.558 9.1516,7.989995 0.005,4.431996 -4.06897,8.004455 -9.1341,8.009995 l -22.85713,0.025 c 0,0 -0.004,-3.567999 -0.009,-7.999995 -0.005,-4.431996 -0.009,-7.999995 -0.009,-7.999995 z"
       sodipodi:nodetypes="cssscsc" />
    <path
       id="rect864"
       style="fill:#000000;fill-opacity:1;stroke:none;stroke-width:20;stroke-linecap:square;stroke-miterlimit:4;stroke-dasharray:none"
       d="m 299.32226,54.652344 -81.76562,0.08984 a 39.999702,39.999703 55.68243 0 1 2.5,39.996096 l 79.30859,-0.0859 c 2.216,-0.002 3.99809,-1.78986 3.99609,-4.00586 l -0.0351,-32 c -0.002,-2.215999 -1.78791,-3.99654 -4.00391,-3.99414 z" />
    <path
       style="color:#000000;font-style:normal;font-variant:normal;font-weight:normal;font-stretch:normal;font-size:medium;line-height:normal;font-family:sans-serif;font-variant-ligatures:normal;font-variant-position:normal;font-variant-caps:normal;font-variant-numeric:normal;font-variant-alternates:normal;font-variant-east-asian:normal;font-feature-settings:normal;font-variation-settings:normal;text-indent:0;text-align:start;text-decoration:none;text-decoration-line:none;text-decoration-style:solid;text-decoration-color:#000000;letter-spacing:normal;word-spacing:normal;text-transform:none;writing-mode:lr-tb;direction:ltr;text-orientation:mixed;dominant-baseline:auto;baseline-shift:baseline;text-anchor:start;white-space:normal;shape-padding:0;shape-margin:0;inline-size:0;clip-rule:nonzero;display:inline;overflow:visible;visibility:visible;opacity:0.999;isolation:auto;mix-blend-mode:normal;color-interpolation:sRGB;color-interpolation-filters:linearRGB;solid-color:#000000;solid-opacity:1;vector-effect:none;fill:#000000;fill-opacity:1;fill-rule:nonzero;stroke:none;stroke-width:8;stroke-linecap:square;stroke-linejoin:miter;stroke-miterlimit:4;stroke-dasharray:none;stroke-dashoffset:0;stroke-opacity:1;color-rendering:auto;image-rendering:auto;shape-rendering:auto;text-rendering:auto;enable-background:accumulate;stop-color:#000000"
       d="M 123.25741,281.71899 257.42279,161.7205 c 12.38795,-11.07987 31.2808,-10.0268 42.36067,2.36115 11.07987,12.38795 10.0268,31.28081 -2.36114,42.36068 L 163.25693,326.44082 c -12.38794,11.07987 -31.28081,10.02679 -42.36068,-2.36115 -11.07987,-12.38795 -10.02679,-31.28081 2.36116,-42.36068 z"
       id="path965" />
    <circle
       style="fill:#ffffff;fill-opacity:1;stroke:none;stroke-width:20;stroke-linecap:square;stroke-miterlimit:4;stroke-dasharray:none"
       id="path866"
       cx="-95.938805"
       cy="322.15363"
       r="9"
       transform="rotate(-41.80968)" />
    <circle
       style="fill:#ffffff;fill-opacity:1;stroke:none;stroke-width:20;stroke-linecap:square;stroke-miterlimit:4;stroke-dasharray:none"
       id="circle868"
       cx="84.061195"
       cy="322.15363"
       r="9"
       transform="rotate(-41.80968)" />
    <path
       id="rect840"
       style="opacity:0.999;fill:#000000;stroke:#000000;stroke-width:0;stroke-linecap:square;stroke-miterlimit:4;stroke-dasharray:none"
       d="m 223.4746,84.75391 a 39.999702,39.999703 55.68243 0 1 -12.55468,21.96093 39.999702,39.999703 55.68243 0 1 -23.22461,10.03321 l 50.66601,56.65429 16.39454,-14.66406 c 7.77391,-6.95304 17.87064,-9.66448 27.45507,-8.30664 z" />
    <circle
       style="fill:none;fill-opacity:1;stroke:#000000;stroke-width:8;stroke-linecap:square;stroke-miterlimit:4;stroke-dasharray:none"
       id="path857"
       cx="-180.14644"
       cy="86.083771"
       transform="rotate(-131.80594)"
       r="20.351187" />
    <rect
       style="opacity:0.999;fill:#000000;stroke:#000000;stroke-width:0;stroke-linecap:square;stroke-miterlimit:4;stroke-dasharray:none"
       id="rect987"
       width="200"
       height="20"
       x="50.896481"
       y="339.52505"
       ry="10" />
  </g>
</svg>
