<?xml version="1.0" encoding="UTF-8" standalone="no"?>
<svg
   xmlns:dc="http://purl.org/dc/elements/1.1/"
   xmlns:cc="http://creativecommons.org/ns#"
   xmlns:rdf="http://www.w3.org/1999/02/22-rdf-syntax-ns#"
   xmlns:svg="http://www.w3.org/2000/svg"
   xmlns="http://www.w3.org/2000/svg"
   xmlns:sodipodi="http://sodipodi.sourceforge.net/DTD/sodipodi-0.dtd"
   xmlns:inkscape="http://www.inkscape.org/namespaces/inkscape"
   width="400"
   height="400"
   viewBox="0 0 400 400"
   version="1.1"
   id="svg8"
   inkscape:version="1.0.1 (3bc2e813f5, 2020-09-07)"
   sodipodi:docname="robot2.svg">
  <defs
     id="defs2" />
  <sodipodi:namedview
     id="base"
     pagecolor="#ffffff"
     bordercolor="#666666"
     borderopacity="1.0"
     inkscape:pageopacity="0.0"
     inkscape:pageshadow="2"
     inkscape:zoom="1.4619433"
     inkscape:cx="269.08742"
     inkscape:cy="205.25201"
     inkscape:document-units="px"
     inkscape:current-layer="layer1"
     inkscape:document-rotation="0"
     showgrid="true"
     units="px"
     inkscape:snap-nodes="true"
     inkscape:snap-grids="true"
     inkscape:object-nodes="true"
     inkscape:window-width="1920"
     inkscape:window-height="1017"
     inkscape:window-x="-8"
     inkscape:window-y="-8"
     inkscape:window-maximized="1">
    <inkscape:grid
       type="xygrid"
       id="grid833"
       spacingx="10"
       spacingy="10" />
  </sodipodi:namedview>
  <metadata
     id="metadata5">
    <rdf:RDF>
      <cc:Work
         rdf:about="">
        <dc:format>image/svg+xml</dc:format>
        <dc:type
           rdf:resource="http://purl.org/dc/dcmitype/StillImage" />
        <dc:title></dc:title>
      </cc:Work>
    </rdf:RDF>
  </metadata>
  <g
     inkscape:label="Layer 1"
     inkscape:groupmode="layer"
     id="layer1">
    <path
       id="rect1384"
       style="fill:#ff0000;fill-opacity:1;stroke:none;stroke-width:1;stroke-linecap:square;stroke-linejoin:miter;stroke-miterlimit:4;stroke-dasharray:none;stroke-opacity:1"
       d="m 86.13086,310 c -16.62,0 -30,13.38 -30,30 v 30 h 160 v -30 c 0,-16.62 -13.38,-30 -30,-30 h -7.60547 l -22.93164,22.7168 C 141.90368,346.27866 119.8314,346.1764 106.26953,332.48633 100.05218,326.2102 96.71481,318.17189 96.23438,310 Z m 16.06641,0 c 0.47633,6.62728 3.24737,13.12898 8.33398,18.26367 11.29556,11.40234 29.43748,11.48699 40.83984,0.19141 L 170,310 Z" />
    <g
       id="g907"
       style="opacity:1" />
    <g
       id="g1061"
       style="opacity:1" />
    <path
       id="rect1336"
       style="fill:#ff0000;fill-opacity:1;stroke:none;stroke-width:0.25;stroke-linecap:square;stroke-linejoin:miter;stroke-miterlimit:4;stroke-dasharray:none;stroke-opacity:1"
       d="m 136.09621,109.20872 68.81742,69.46798 22.64658,-22.4345 c 9.23941,-9.15289 21.90368,-12.83778 33.90111,-11.07363 L 187.22368,70.229141 a 39.846884,39.846884 0 0 1 -11.79692,29.073961 39.846884,39.846884 0 0 1 -39.33055,9.905618 z M 216.13086,190 l 16.8259,16.98494 c 6.72382,6.78738 15.6927,9.89723 24.49784,9.38482 l 14.97463,-14.83437 c 9.5076,-9.41856 9.57762,-24.30324 0.15906,-33.81084 -9.41856,-9.50758 -24.30323,-9.5776 -33.81082,-0.15906 z" />
    <rect
       style="fill:#ff0000;fill-opacity:1;stroke:none;stroke-width:6;stroke-linecap:square;stroke-linejoin:miter;stroke-miterlimit:4;stroke-dasharray:none;stroke-opacity:1"
       id="rect1327"
       width="239.0813"
       height="63.755013"
       x="-155.49815"
       y="279.11844"
       ry="31.877506"
       transform="rotate(-44.730452)" />
    <path
       id="rect1338"
       style="fill:#ff0000;fill-opacity:1;stroke:none;stroke-width:0.25;stroke-linecap:square;stroke-linejoin:miter;stroke-miterlimit:4;stroke-dasharray:none;stroke-opacity:1"
       d="m 166.10584,35.822923 a 39.846884,39.846884 0 0 1 9.58602,7.1288 39.846884,39.846884 0 0 1 9.55914,40.449365 L 293.07363,82.03947 c 8.82936,-0.111683 15.84748,-7.311201 15.7358,-16.140564 l -0.20238,-15.938175 c -0.11165,-8.829363 -7.30901,-15.845265 -16.13836,-15.73359 z" />
    <circle
       style="fill:#ffffff;fill-opacity:1;stroke:#000000;stroke-width:0.25;stroke-linecap:square;stroke-linejoin:miter;stroke-miterlimit:4;stroke-dasharray:none;stroke-opacity:1"
       id="path1325"
       cx="-124.22774"
       cy="312.85587"
       transform="rotate(-44.730452)"
       r="7.9693766" />
    <circle
       style="fill:#ffffff;fill-opacity:1;stroke:#000000;stroke-width:0.25;stroke-linecap:square;stroke-linejoin:miter;stroke-miterlimit:4;stroke-dasharray:none;stroke-opacity:1"
       id="circle1367"
       cx="53.854622"
       cy="312.0849"
       transform="rotate(-44.730452)"
       r="7.9693766" />
    <circle
       style="fill:#ffffff;fill-opacity:1;stroke:#000000;stroke-width:8;stroke-linecap:square;stroke-linejoin:miter;stroke-miterlimit:4;stroke-dasharray:none;stroke-opacity:1"
       id="path1372"
       cx="54.741158"
       cy="154.16205"
       transform="rotate(-44.730452)"
       r="24.298971" />
    <path
       id="rect1381"
       style="fill:#ff0000;fill-opacity:1;stroke:none;stroke-width:1;stroke-linecap:square;stroke-linejoin:miter;stroke-miterlimit:4;stroke-dasharray:none;stroke-opacity:1"
       d="m 322.45115,50.821738 23.84066,0.02235 c 4.41504,0.0041 7.96938,3.554341 7.96938,7.969376 0,4.415036 -3.55437,7.987222 -7.96938,7.969377 l -23.84066,-0.09636 c 0,0 -0.0674,-3.457978 -0.0674,-7.873013 0,-4.415035 -0.22166,-6.546243 0.0674,-7.991716 z"
       sodipodi:nodetypes="cssscsc" />
  </g>
</svg>
