<?xml version="1.0" encoding="UTF-8" standalone="no"?>
<svg
   xmlns:dc="http://purl.org/dc/elements/1.1/"
   xmlns:cc="http://creativecommons.org/ns#"
   xmlns:rdf="http://www.w3.org/1999/02/22-rdf-syntax-ns#"
   xmlns:svg="http://www.w3.org/2000/svg"
   xmlns="http://www.w3.org/2000/svg"
   xmlns:sodipodi="http://sodipodi.sourceforge.net/DTD/sodipodi-0.dtd"
   xmlns:inkscape="http://www.inkscape.org/namespaces/inkscape"
   width="400"
   height="400"
   viewBox="0 0 399.99999 399.99999"
   version="1.1"
   id="svg8"
   inkscape:version="1.0.1 (3bc2e813f5, 2020-09-07)"
   sodipodi:docname="robot3c.svg">
  <defs
     id="defs2">
    <inkscape:path-effect
       effect="gears"
       id="path-effect861"
       is_visible="true"
       lpeversion="1"
       teeth="16"
       phi="5"
       min_radius="5" />
  </defs>
  <sodipodi:namedview
     id="base"
     pagecolor="#ffffff"
     bordercolor="#666666"
     borderopacity="1.0"
     inkscape:pageopacity="0.0"
     inkscape:pageshadow="2"
     inkscape:zoom="2.0675"
     inkscape:cx="200"
     inkscape:cy="200"
     inkscape:document-units="px"
     inkscape:current-layer="layer1"
     inkscape:document-rotation="0"
     showgrid="true"
     units="px"
     width="400mm"
     inkscape:snap-object-midpoints="false"
     showguides="false"
     inkscape:window-width="1920"
     inkscape:window-height="1017"
     inkscape:window-x="-8"
     inkscape:window-y="-8"
     inkscape:window-maximized="1"
     inkscape:object-paths="true"
     inkscape:snap-smooth-nodes="true">
    <inkscape:grid
       type="xygrid"
       id="grid833"
       spacingx="2"
       spacingy="2"
       dotted="false" />
  </sodipodi:namedview>
  <metadata
     id="metadata5">
    <rdf:RDF>
      <cc:Work
         rdf:about="">
        <dc:format>image/svg+xml</dc:format>
        <dc:type
           rdf:resource="http://purl.org/dc/dcmitype/StillImage" />
        <dc:title></dc:title>
      </cc:Work>
    </rdf:RDF>
  </metadata>
  <g
     inkscape:label="Layer 1"
     inkscape:groupmode="layer"
     id="layer1">
    <rect
       style="opacity:1;fill:#000000;stroke:#ffffff;stroke-width:2;stroke-linecap:round;stroke-linejoin:round;stroke-miterlimit:4;stroke-dasharray:none;paint-order:fill markers stroke"
       id="rect2643"
       width="10"
       height="10"
       x="310"
       y="220" />
    <path
       id="rect2431"
       style="opacity:0.922581;fill:#ffffff;stroke:#000000;stroke-width:2;stroke-linecap:round;stroke-linejoin:round;stroke-miterlimit:4;stroke-dasharray:none;paint-order:fill markers stroke"
       d="m 45.643955,64.61016 -14.79652,13.78439 v 79.50377 H 112.47457 V 64.61016 Z" />
    <rect
       style="fill:#ffffff;stroke:#000000;stroke-width:2;stroke-linecap:round;stroke-linejoin:round;stroke-miterlimit:4;stroke-dasharray:none;paint-order:fill markers stroke"
       id="rect2441"
       width="11.661019"
       height="11.661019"
       x="26.474579"
       y="86.474579" />
    <rect
       style="fill:#ffffff;stroke:#000000;stroke-width:2;stroke-linecap:round;stroke-linejoin:round;stroke-miterlimit:4;stroke-dasharray:none;paint-order:fill markers stroke"
       id="rect2443"
       width="11.661019"
       height="5.8305097"
       x="26.474579"
       y="137.49153" />
    <rect
       style="opacity:0.7;fill:#ffffff;stroke:#000000;stroke-width:2;stroke-linecap:round;stroke-linejoin:round;stroke-miterlimit:4;stroke-dasharray:none;paint-order:fill markers stroke"
       id="rect2445"
       width="20.406784"
       height="8.7457647"
       x="42.508484"
       y="108.33899" />
    <rect
       style="opacity:0.7;fill:#ffffff;stroke:#000000;stroke-width:2;stroke-linecap:round;stroke-linejoin:round;stroke-miterlimit:4;stroke-dasharray:none;paint-order:fill markers stroke"
       id="rect2447"
       width="8.7457647"
       height="5.8305097"
       x="60"
       y="80.644058" />
    <rect
       style="opacity:0.7;fill:#ffffff;stroke:#000000;stroke-width:2;stroke-linecap:round;stroke-linejoin:round;stroke-miterlimit:4;stroke-dasharray:none;paint-order:fill markers stroke"
       id="rect2449"
       width="8.7457647"
       height="5.8305097"
       x="60"
       y="89.389832" />
    <rect
       style="opacity:0.7;fill:#000000;stroke:none;stroke-width:6;stroke-linecap:round;stroke-linejoin:round;stroke-miterlimit:4;stroke-dasharray:none;paint-order:fill markers stroke"
       id="rect2451"
       width="2.9152548"
       height="2.9152548"
       x="45.423737"
       y="105.42374" />
    <rect
       style="opacity:0.7;fill:#000000;stroke:none;stroke-width:6;stroke-linecap:round;stroke-linejoin:round;stroke-miterlimit:4;stroke-dasharray:none;paint-order:fill markers stroke"
       id="rect2453"
       width="2.9152548"
       height="2.9152548"
       x="51.254242"
       y="105.42374" />
    <rect
       style="opacity:0.7;fill:#000000;stroke:none;stroke-width:6;stroke-linecap:round;stroke-linejoin:round;stroke-miterlimit:4;stroke-dasharray:none;paint-order:fill markers stroke"
       id="rect2455"
       width="2.9152548"
       height="2.9152548"
       x="57.084747"
       y="105.42374" />
    <rect
       style="opacity:0.7;fill:#000000;stroke:none;stroke-width:6;stroke-linecap:round;stroke-linejoin:round;stroke-miterlimit:4;stroke-dasharray:none;paint-order:fill markers stroke"
       id="rect2457"
       width="2.9152548"
       height="2.9152548"
       x="45.423737"
       y="117.08475" />
    <rect
       style="opacity:0.7;fill:#000000;stroke:none;stroke-width:6;stroke-linecap:round;stroke-linejoin:round;stroke-miterlimit:4;stroke-dasharray:none;paint-order:fill markers stroke"
       id="rect2459"
       width="2.9152548"
       height="2.9152548"
       x="51.254242"
       y="117.08475" />
    <rect
       style="opacity:0.7;fill:#000000;stroke:none;stroke-width:6;stroke-linecap:round;stroke-linejoin:round;stroke-miterlimit:4;stroke-dasharray:none;paint-order:fill markers stroke"
       id="rect2461"
       width="2.9152548"
       height="2.9152548"
       x="57.084747"
       y="117.08475" />
    <rect
       style="opacity:0.7;fill:#000000;stroke:none;stroke-width:6;stroke-linecap:round;stroke-linejoin:round;stroke-miterlimit:4;stroke-dasharray:none;paint-order:fill markers stroke"
       id="rect2465"
       width="2.9152548"
       height="4.3728824"
       x="52.711853"
       y="133.11865" />
    <rect
       style="opacity:0.7;fill:#000000;stroke:none;stroke-width:6;stroke-linecap:round;stroke-linejoin:round;stroke-miterlimit:4;stroke-dasharray:none;paint-order:fill markers stroke"
       id="rect2467"
       width="2.9152548"
       height="4.3728824"
       x="58.542358"
       y="133.11865" />
    <rect
       style="opacity:0.7;fill:#000000;stroke:none;stroke-width:6;stroke-linecap:round;stroke-linejoin:round;stroke-miterlimit:4;stroke-dasharray:none;paint-order:fill markers stroke"
       id="rect2469"
       width="2.9152548"
       height="4.3728824"
       x="64.372894"
       y="133.11865" />
    <rect
       style="opacity:0.7;fill:#000000;stroke:none;stroke-width:6;stroke-linecap:round;stroke-linejoin:round;stroke-miterlimit:4;stroke-dasharray:none;paint-order:fill markers stroke"
       id="rect2480"
       width="2.9152548"
       height="2.9152548"
       x="38.13559"
       y="87.932205" />
    <rect
       style="opacity:0.7;fill:#000000;stroke:none;stroke-width:6;stroke-linecap:round;stroke-linejoin:round;stroke-miterlimit:4;stroke-dasharray:none;paint-order:fill markers stroke"
       id="rect2482"
       width="2.9152548"
       height="2.9152548"
       x="38.13559"
       y="93.762711" />
    <circle
       style="opacity:0.7;fill:#ffffff;stroke:#000000;stroke-width:2;stroke-linecap:round;stroke-linejoin:round;stroke-miterlimit:4;stroke-dasharray:none;paint-order:fill markers stroke"
       id="path2484"
       cx="38.13559"
       cy="150.61018"
       r="2.9152548" />
    <circle
       style="opacity:0.7;fill:#ffffff;stroke:#000000;stroke-width:2;stroke-linecap:round;stroke-linejoin:round;stroke-miterlimit:4;stroke-dasharray:none;paint-order:fill markers stroke"
       id="circle2486"
       cx="48.338989"
       cy="150.61018"
       r="2.9152548" />
    <circle
       style="opacity:0.7;fill:#000000;stroke:none;stroke-width:2;stroke-linecap:round;stroke-linejoin:round;stroke-miterlimit:4;stroke-dasharray:none;paint-order:fill markers stroke"
       id="path2488"
       cx="42.508484"
       cy="74.813553"
       r="1.4576274" />
    <rect
       style="opacity:0.7;fill:#ffffff;stroke:#000000;stroke-width:2;stroke-linecap:round;stroke-linejoin:round;stroke-miterlimit:4;stroke-dasharray:none;paint-order:fill markers stroke"
       id="rect2490"
       width="14.576274"
       height="69.966118"
       x="86.237305"
       y="71.8983" />
    <rect
       style="opacity:0.7;fill:#000000;stroke:none;stroke-width:6;stroke-linecap:round;stroke-linejoin:round;stroke-miterlimit:4;stroke-dasharray:none;paint-order:fill markers stroke"
       id="rect2492"
       width="2.9152548"
       height="2.9152548"
       x="38.13559"
       y="138.94916" />
    <rect
       style="opacity:0.7;fill:#000000;stroke:none;stroke-width:2;stroke-linecap:round;stroke-linejoin:round;stroke-miterlimit:4;stroke-dasharray:none;paint-order:fill markers stroke"
       id="rect2494"
       width="4.3728824"
       height="2.9152548"
       x="81.86441"
       y="76.271179" />
    <circle
       style="opacity:0.7;fill:#000000;stroke:none;stroke-width:2;stroke-linecap:round;stroke-linejoin:round;stroke-miterlimit:4;stroke-dasharray:none;paint-order:fill markers stroke"
       id="circle2496"
       cx="93.525421"
       cy="76.271179"
       r="1.4576274" />
    <rect
       style="opacity:0.7;fill:#000000;stroke:none;stroke-width:2;stroke-linecap:round;stroke-linejoin:round;stroke-miterlimit:4;stroke-dasharray:none;paint-order:fill markers stroke"
       id="rect2498"
       width="4.3728824"
       height="2.9152548"
       x="81.86441"
       y="82.1017" />
    <rect
       style="opacity:0.7;fill:#000000;stroke:none;stroke-width:2;stroke-linecap:round;stroke-linejoin:round;stroke-miterlimit:4;stroke-dasharray:none;paint-order:fill markers stroke"
       id="rect2500"
       width="4.3728824"
       height="2.9152548"
       x="81.86441"
       y="87.932205" />
    <rect
       style="opacity:0.7;fill:#000000;stroke:none;stroke-width:2;stroke-linecap:round;stroke-linejoin:round;stroke-miterlimit:4;stroke-dasharray:none;paint-order:fill markers stroke"
       id="rect2502"
       width="4.3728824"
       height="2.9152548"
       x="81.86441"
       y="93.762711" />
    <rect
       style="opacity:0.7;fill:#000000;stroke:none;stroke-width:2;stroke-linecap:round;stroke-linejoin:round;stroke-miterlimit:4;stroke-dasharray:none;paint-order:fill markers stroke"
       id="rect2513"
       width="4.3728824"
       height="2.9152548"
       x="81.86441"
       y="99.593216" />
    <rect
       style="opacity:0.7;fill:#000000;stroke:none;stroke-width:2;stroke-linecap:round;stroke-linejoin:round;stroke-miterlimit:4;stroke-dasharray:none;paint-order:fill markers stroke"
       id="rect2515"
       width="4.3728824"
       height="2.9152548"
       x="81.86441"
       y="105.42374" />
    <rect
       style="opacity:0.7;fill:#000000;stroke:none;stroke-width:2;stroke-linecap:round;stroke-linejoin:round;stroke-miterlimit:4;stroke-dasharray:none;paint-order:fill markers stroke"
       id="rect2517"
       width="4.3728824"
       height="2.9152548"
       x="81.86441"
       y="111.25424" />
    <rect
       style="opacity:0.7;fill:#000000;stroke:none;stroke-width:2;stroke-linecap:round;stroke-linejoin:round;stroke-miterlimit:4;stroke-dasharray:none;paint-order:fill markers stroke"
       id="rect2519"
       width="4.3728824"
       height="2.9152548"
       x="81.86441"
       y="117.08475" />
    <rect
       style="opacity:0.7;fill:#000000;stroke:none;stroke-width:2;stroke-linecap:round;stroke-linejoin:round;stroke-miterlimit:4;stroke-dasharray:none;paint-order:fill markers stroke"
       id="rect2521"
       width="4.3728824"
       height="2.9152548"
       x="81.86441"
       y="122.91527" />
    <rect
       style="opacity:0.7;fill:#000000;stroke:none;stroke-width:2;stroke-linecap:round;stroke-linejoin:round;stroke-miterlimit:4;stroke-dasharray:none;paint-order:fill markers stroke"
       id="rect2523"
       width="4.3728824"
       height="2.9152548"
       x="81.86441"
       y="128.74577" />
    <rect
       style="opacity:0.7;fill:#000000;stroke:none;stroke-width:2;stroke-linecap:round;stroke-linejoin:round;stroke-miterlimit:4;stroke-dasharray:none;paint-order:fill markers stroke"
       id="rect2525"
       width="4.3728824"
       height="2.9152548"
       x="81.86441"
       y="134.57628" />
    <rect
       style="opacity:0.7;fill:#000000;stroke:none;stroke-width:2;stroke-linecap:round;stroke-linejoin:round;stroke-miterlimit:4;stroke-dasharray:none;paint-order:fill markers stroke"
       id="rect2527"
       width="4.3728824"
       height="2.9152548"
       x="100.81357"
       y="76.271179" />
    <rect
       style="opacity:0.7;fill:#000000;stroke:none;stroke-width:2;stroke-linecap:round;stroke-linejoin:round;stroke-miterlimit:4;stroke-dasharray:none;paint-order:fill markers stroke"
       id="rect2529"
       width="4.3728824"
       height="2.9152548"
       x="100.81357"
       y="82.1017" />
    <rect
       style="opacity:0.7;fill:#000000;stroke:none;stroke-width:2;stroke-linecap:round;stroke-linejoin:round;stroke-miterlimit:4;stroke-dasharray:none;paint-order:fill markers stroke"
       id="rect2531"
       width="4.3728824"
       height="2.9152548"
       x="100.81357"
       y="87.932205" />
    <rect
       style="opacity:0.7;fill:#000000;stroke:none;stroke-width:2;stroke-linecap:round;stroke-linejoin:round;stroke-miterlimit:4;stroke-dasharray:none;paint-order:fill markers stroke"
       id="rect2533"
       width="4.3728824"
       height="2.9152548"
       x="100.81357"
       y="93.762711" />
    <rect
       style="opacity:0.7;fill:#000000;stroke:none;stroke-width:2;stroke-linecap:round;stroke-linejoin:round;stroke-miterlimit:4;stroke-dasharray:none;paint-order:fill markers stroke"
       id="rect2535"
       width="4.3728824"
       height="2.9152548"
       x="100.81357"
       y="99.593216" />
    <rect
       style="opacity:0.7;fill:#000000;stroke:none;stroke-width:2;stroke-linecap:round;stroke-linejoin:round;stroke-miterlimit:4;stroke-dasharray:none;paint-order:fill markers stroke"
       id="rect2537"
       width="4.3728824"
       height="2.9152548"
       x="100.81357"
       y="105.42374" />
    <rect
       style="opacity:0.7;fill:#000000;stroke:none;stroke-width:2;stroke-linecap:round;stroke-linejoin:round;stroke-miterlimit:4;stroke-dasharray:none;paint-order:fill markers stroke"
       id="rect2539"
       width="4.3728824"
       height="2.9152548"
       x="100.81357"
       y="111.25424" />
    <rect
       style="opacity:0.7;fill:#000000;stroke:none;stroke-width:2;stroke-linecap:round;stroke-linejoin:round;stroke-miterlimit:4;stroke-dasharray:none;paint-order:fill markers stroke"
       id="rect2541"
       width="4.3728824"
       height="2.9152548"
       x="100.81357"
       y="117.08475" />
    <rect
       style="opacity:0.7;fill:#000000;stroke:none;stroke-width:2;stroke-linecap:round;stroke-linejoin:round;stroke-miterlimit:4;stroke-dasharray:none;paint-order:fill markers stroke"
       id="rect2543"
       width="4.3728824"
       height="2.9152548"
       x="100.81357"
       y="122.91527" />
    <rect
       style="opacity:0.7;fill:#000000;stroke:none;stroke-width:2;stroke-linecap:round;stroke-linejoin:round;stroke-miterlimit:4;stroke-dasharray:none;paint-order:fill markers stroke"
       id="rect2545"
       width="4.3728824"
       height="2.9152548"
       x="100.81357"
       y="128.74577" />
    <rect
       style="opacity:0.7;fill:#000000;stroke:none;stroke-width:2;stroke-linecap:round;stroke-linejoin:round;stroke-miterlimit:4;stroke-dasharray:none;paint-order:fill markers stroke"
       id="rect2547"
       width="4.3728824"
       height="2.9152548"
       x="100.81357"
       y="134.57628" />
    <path
       id="rect835"
       style="opacity:0.999;fill:#000000;stroke:#000000;stroke-width:0;stroke-linecap:square;stroke-miterlimit:4;stroke-dasharray:none"
       d="m 136.0958,189.81845 c -8.80287,0 -15.88957,7.19752 -15.88957,16.13794 v 16.13794 H 223.48904 V 205.95639 C 223.48904,197.84527 217.65557,191.16883 210,190 l -28.45195,25.44751 c -9.02956,8.07611 -22.91504,7.3023 -30.99114,-1.72726 -6.02905,-6.74082 -7.12321,-16.18595 -3.53522,-23.9018 z" />
    <rect
       style="opacity:0.999;fill:#ff0000;stroke:#000000;stroke-width:0;stroke-linecap:square;stroke-miterlimit:4;stroke-dasharray:none"
       id="rect842"
       width="129.10352"
       height="12.910352"
       x="107.29588"
       y="221.9693"
       ry="6.4551759"
       rx="6.4551759" />
    <path
       id="rect861"
       style="fill:#000000;fill-opacity:1;stroke:none;stroke-width:20;stroke-linecap:square;stroke-miterlimit:4;stroke-dasharray:none"
       d="m 277.99522,45.813512 14.75468,-0.01614 c 3.26963,-0.0036 5.90439,2.296752 5.90752,5.157682 0.003,2.860932 -2.6266,5.167017 -5.89623,5.170593 l -14.75467,0.01614 c 0,0 -0.003,-2.303206 -0.006,-5.164138 -0.003,-2.860931 -0.006,-5.164137 -0.006,-5.164137 z"
       sodipodi:nodetypes="cssscsc" />
    <path
       id="rect864"
       style="fill:#000000;fill-opacity:1;stroke:none;stroke-width:20;stroke-linecap:square;stroke-miterlimit:4;stroke-dasharray:none"
       d="m 267.65909,38.078954 -52.78115,0.05799 a 25.820511,25.820511 0 0 1 1.6138,25.818183 l 51.19509,-0.05545 c 1.43046,-0.0013 2.58083,-1.155386 2.57954,-2.585853 l -0.0227,-20.656562 c -0.001,-1.430467 -1.15412,-2.579837 -2.58459,-2.578288 z" />
    <path
       style="color:#000000;font-style:normal;font-variant:normal;font-weight:normal;font-stretch:normal;font-size:medium;line-height:normal;font-family:sans-serif;font-variant-ligatures:normal;font-variant-position:normal;font-variant-caps:normal;font-variant-numeric:normal;font-variant-alternates:normal;font-variant-east-asian:normal;font-feature-settings:normal;font-variation-settings:normal;text-indent:0;text-align:start;text-decoration:none;text-decoration-line:none;text-decoration-style:solid;text-decoration-color:#000000;letter-spacing:normal;word-spacing:normal;text-transform:none;writing-mode:lr-tb;direction:ltr;text-orientation:mixed;dominant-baseline:auto;baseline-shift:baseline;text-anchor:start;white-space:normal;shape-padding:0;shape-margin:0;inline-size:0;clip-rule:nonzero;display:inline;overflow:visible;visibility:visible;opacity:0.999;isolation:auto;mix-blend-mode:normal;color-interpolation:sRGB;color-interpolation-filters:linearRGB;solid-color:#000000;solid-opacity:1;vector-effect:none;fill:#000000;fill-opacity:1;fill-rule:nonzero;stroke:none;stroke-width:8.00003;stroke-linecap:square;stroke-linejoin:miter;stroke-miterlimit:4;stroke-dasharray:none;stroke-dashoffset:0;stroke-opacity:1;color-rendering:auto;image-rendering:auto;shape-rendering:auto;text-rendering:auto;enable-background:accumulate;stop-color:#000000"
       d="m 154.00613,184.65447 86.60611,-77.46114 c 7.99664,-7.15225 20.19231,-6.47247 27.34456,1.52416 7.15225,7.99664 6.47248,20.19232 -1.52416,27.34457 l -86.60611,77.46113 c -7.99664,7.15225 -20.19232,6.47247 -27.34457,-1.52416 -7.15225,-7.99664 -6.47247,-20.19231 1.52417,-27.34456 z"
       id="path965" />
    <circle
       style="fill:#ffffff;fill-opacity:1;stroke:none;stroke-width:20;stroke-linecap:square;stroke-miterlimit:4;stroke-dasharray:none"
       id="path866"
       cx="-8.3109407"
       cy="259.66971"
       r="5.8096585"
       transform="rotate(-41.80968)" />
    <circle
       style="fill:#ffffff;fill-opacity:1;stroke:none;stroke-width:20;stroke-linecap:square;stroke-miterlimit:4;stroke-dasharray:none"
       id="circle868"
       cx="107.88223"
       cy="259.66971"
       r="5.8096585"
       transform="rotate(-41.80968)" />
    <path
       id="rect840"
       style="opacity:0.999;fill:#000000;stroke:#000000;stroke-width:0;stroke-linecap:square;stroke-miterlimit:4;stroke-dasharray:none"
       d="m 218.69809,57.510044 a 25.820511,25.820511 0 0 1 -8.10427,14.176166 25.820511,25.820511 0 0 1 -14.99189,6.476614 l 32.7058,36.571336 10.58296,-9.4659 c 5.0182,-4.48831 11.53582,-6.2386 17.72273,-5.36209 z" />
    <circle
       style="fill:none;fill-opacity:1;stroke:#000000;stroke-width:8.00003;stroke-linecap:square;stroke-miterlimit:4;stroke-dasharray:none"
       id="path857"
       cx="-167.99808"
       cy="109.19121"
       transform="rotate(-131.80594)"
       r="13.137049" />
    <rect
       style="opacity:0.999;fill:#000000;stroke:#000000;stroke-width:0;stroke-linecap:square;stroke-miterlimit:4;stroke-dasharray:none"
       id="rect987"
       width="129.10352"
       height="12.910352"
       x="107.29588"
       y="220.51625"
       ry="6.4551759"
       rx="6.4551759" />
    <path
       style="fill:#000000;fill-opacity:1;stroke:none;stroke-width:0.999998px;stroke-linecap:butt;stroke-linejoin:miter;stroke-opacity:1"
       d="m 297.91899,355.02208 c 0,0 -0.56325,1.91302 -3.53368,4.42961 -1.59871,-0.56379 -3.15876,-1.23175 -4.67011,-1.9996 -0.22887,-3.88641 0.7668,-5.61429 0.7668,-5.61429 l 2.53131,-4.36414 c -1.9813,-1.1492 -3.81659,-2.53346 -5.466,-4.12269 l -3.50055,3.63309 c 0,0 -1.38776,1.43215 -5.18745,2.28004 -1.15359,-1.24217 -2.22453,-2.55861 -3.20593,-3.94086 1.60346,-3.5476 3.28806,-4.61486 3.28806,-4.61486 l 4.26948,-2.68789 c -1.22029,-1.93833 -2.20206,-4.01692 -2.92399,-6.19064 l -4.78797,1.59016 c 0,0 -1.89435,0.62317 -5.65285,-0.39186 -0.44418,-1.63598 -0.78067,-3.29932 -1.00729,-4.97932 3.06844,-2.39609 5.05606,-2.55822 5.05606,-2.55822 l 5.02957,-0.39588 c -0.17973,-2.28341 -0.0831,-4.58016 0.28787,-6.84039 l -4.97852,-0.81707 c 0,0 -1.96697,-0.32855 -4.82325,-2.97398 0.36697,-1.65501 0.84202,-3.2842 1.42209,-4.87708 3.83049,-0.69566 5.66579,0.0845 5.66579,0.0845 l 4.63743,1.98682 c 0.90201,-2.10538 2.05495,-4.09414 3.43379,-5.92309 l -4.02856,-3.03711 c 0,0 -1.58897,-1.20501 -2.88869,-4.8748 1.09406,-1.2949 2.27182,-2.51671 3.52569,-3.65757 3.71502,1.16415 4.97755,2.70783 4.97755,2.70783 l 3.18292,3.91436 c 1.77711,-1.44503 3.72221,-2.67019 5.79306,-3.64887 l -2.15569,-4.56139 c 0,0 -0.84697,-1.80542 -0.29238,-5.65886 1.57052,-0.63815 3.18117,-1.17267 4.82161,-1.60014 2.74847,2.75725 3.149,4.71083 3.149,4.71083 l 0.99925,4.94518 c 2.24509,-0.45365 4.53675,-0.63454 6.82521,-0.53875 l 0.21101,-5.0407 c 0,0 0.0891,-1.99223 2.37092,-5.14656 1.68719,0.16481 3.36175,0.44002 5.01294,0.82386 1.1523,3.71871 0.59907,5.63466 0.59907,5.63466 l -1.41335,4.8431 c 2.19876,0.64166 4.31199,1.54648 6.2938,2.6948 l 2.52937,-4.36526 c 0,0 1.0047,-1.72264 4.49107,-3.45522 1.41734,0.93 2.7722,1.9519 4.05587,3.05911 -0.70786,3.82826 -2.0881,5.26765 -2.0881,5.26765 l -3.50217,3.63154 c 1.64871,1.58997 3.09939,3.37321 4.32055,5.311 l 4.26829,-2.68979 c 0,0 1.69017,-1.05841 5.58236,-0.97235 0.8228,1.48215 1.54757,3.01663 2.16966,4.59357 -2.40586,3.06079 -4.29692,3.69388 -4.29692,3.69388 l -4.78868,1.58803 c 0.72096,2.17405 1.17677,4.42719 1.35751,6.71052 l 5.02939,-0.39812 c 0,0 1.98844,-0.15172 5.39481,1.73328 0.0398,1.69475 -0.0316,3.39028 -0.21361,5.0757 -3.5527,1.59213 -5.52136,1.27389 -5.52136,1.27389 l -4.97816,-0.81928 c -0.37194,2.26007 -1.01544,4.46695 -1.91652,6.57273 l 4.63832,1.98476 c 0,0 1.83118,0.78973 3.97137,4.04184 -0.75238,1.5191 -1.60351,2.98726 -2.54793,4.39504 -3.88566,-0.24126 -5.48093,-1.43794 -5.48093,-1.43794 L 330,340 c -1.37965,1.82833 -2.97503,3.48338 -4.75149,4.92921 l 3.18466,3.91295 c 0,0 1.25442,1.55027 1.63814,5.42446 -1.37217,0.99545 -2.8081,1.8999 -4.29856,2.70753 -3.32847,-2.01938 -4.18488,-3.82035 -4.18488,-3.82035 l -2.15367,-4.56234 c -2.07128,0.97776 -4.25306,1.70182 -6.49795,2.15647 l 1.00144,4.94473 c 0,0 0.39029,1.95566 -1.07037,5.56441 -1.6776,0.24375 -3.36937,0.37729 -5.06444,0.39975 -2.00876,-3.33488 -1.93013,-5.32755 -1.93013,-5.32755 l 0.21325,-5.04062 c -2.28842,-0.0968 -4.55677,-0.46961 -6.75581,-1.11028 l -1.4112,4.84373"
       id="path2417" />
    <path
       style="fill:#000000;fill-opacity:1;stroke:none;stroke-width:0.999998px;stroke-linecap:butt;stroke-linejoin:miter;stroke-opacity:1"
       d="m 56.31398,323.58409 c 0,0 -1.99416,0.0162 -5.2645,-2.09604 0.0755,-1.69353 0.26201,-3.38029 0.55819,-5.04943 3.65273,-1.34692 5.59519,-0.89557 5.59519,-0.89557 l 4.91094,1.15583 c 0.52474,-2.22955 1.31679,-4.38758 2.35894,-6.42723 l -4.49265,-2.29551 c 0,0 -1.77326,-0.9124 -3.6874,-4.30248 0.85392,-1.46444 1.8029,-2.87133 2.84084,-4.21165 3.86027,0.50487 5.37049,1.80723 5.37049,1.80723 l 3.81128,3.30566 c 1.50076,-1.73031 3.20497,-3.27307 5.07562,-4.59477 l -2.91127,-4.12041 c 0,0 -1.14613,-1.63196 -1.26557,-5.52328 1.43667,-0.89986 2.93076,-1.70459 4.47269,-2.40903 3.18347,2.241 3.91547,4.09602 3.91547,4.09602 l 1.83851,4.69821 c 2.13297,-0.83468 4.35892,-1.40874 6.62953,-1.70972 l -0.66296,-5.00137 c 0,0 -0.25643,-1.97767 1.4462,-5.47876 1.69029,-0.12914 3.38722,-0.14735 5.0799,-0.0545 1.77738,3.46374 1.56346,5.44645 1.56346,5.44645 l -0.55545,5.01446 c 2.27655,0.25217 4.51431,0.77831 6.66471,1.56702 l 1.73723,-4.73659 c 0,0 0.69201,-1.87031 3.82665,-4.17912 1.55669,0.67117 3.06772,1.44365 4.52337,2.31246 -0.0359,3.89299 -1.14672,5.54918 -1.14672,5.54918 l -2.82215,4.18194 c 1.89859,1.28125 3.63552,2.78708 5.17307,4.48477 l 3.73945,-3.3867 c 0,0 1.48191,-1.33448 5.33046,-1.9221 1.06647,1.31773 2.04543,2.70393 2.93058,4.1497 -1.84093,3.43039 -3.59419,4.38064 -3.59419,4.38064 l -4.44234,2.39141 c 1.08569,2.01681 1.92387,4.15734 2.49635,6.37512 l 4.885,-1.26097 c 0,0 1.93233,-0.49295 5.61313,0.77526 0.33193,1.6624 0.55456,3.34476 0.66644,5.03628 -3.22425,2.18194 -5.21829,2.20856 -5.21829,2.20856 l -5.04484,0.053 c 0.0241,2.29034 -0.2285,4.57521 -0.75225,6.805 l 4.91145,1.15364 c 0,0 1.94008,0.46152 4.6099,3.295 -0.47864,1.62624 -1.06335,3.21937 -1.75037,4.76913 -3.86893,0.43362 -5.64693,-0.46948 -5.64693,-0.46948 l -4.49163,-2.2975 c -1.04306,2.03919 -2.32854,3.94496 -3.82853,5.67593 l 3.81275,3.30397 c 0,0 1.50338,1.31025 2.5506,5.05991 -1.17957,1.21753 -2.43766,2.35644 -3.7662,3.40941 -3.62728,-1.41402 -4.78193,-3.03996 -4.78193,-3.03996 l -2.90944,-4.1217 c -1.87124,1.32087 -3.89513,2.41096 -6.02773,3.24658 l 1.84059,4.69739 c 0,0 0.72227,1.85883 -0.093,5.66565 -1.61027,0.5299 -3.25354,0.95369 -4.91924,1.26864 -2.55466,-2.93773 -2.82145,-4.91402 -2.82145,-4.91402 l -0.66073,-5.00167 c -2.27074,0.29997 -4.5694,0.32464 -6.84606,0.0735 l -0.55321,5.0147 c 0,0 -0.22431,1.98157 -2.71533,4.97346 -1.67207,-0.27913 -3.32406,-0.66755 -4.94533,-1.16276 -0.89681,-3.78844 -0.21461,-5.66235 -0.21461,-5.66235 L 80,349.92472 c -2.15004,-0.78966 -4.19686,-1.83605 -6.09602,-3.11645 l -2.8203,4.1832 c 0,0 -1.11949,1.65035 -4.71558,3.1419 -1.35083,-1.02421 -2.63309,-2.13585 -3.83852,-3.32778 0.9665,-3.77127 2.4414,-5.11349 2.4414,-5.11349 l 3.74096,-3.38505 c -1.5368,-1.69838 -2.86289,-3.57612 -3.94948,-5.59244 l -4.44128,2.39338 c 0,0 -1.75822,0.94106 -5.63555,0.59058 -0.72013,-1.53466 -1.33891,-3.11486 -1.85234,-4.73045 2.60838,-2.89014 4.5381,-3.3932 4.5381,-3.3932 l 4.88556,-1.2588 c -0.57149,-2.21803 -0.87305,-4.49695 -0.89815,-6.78728 l -5.04481,0.0553"
       id="path2415" />
    <path
       style="opacity:0.922581;fill:none;stroke:#000000;stroke-width:6;stroke-linecap:round;stroke-linejoin:round;stroke-miterlimit:4;stroke-dasharray:none;paint-order:fill markers stroke"
       id="path2419"
       sodipodi:type="arc"
       sodipodi:cx="89.785973"
       sodipodi:cy="323.02762"
       sodipodi:rx="39.022415"
       sodipodi:ry="39.027618"
       sodipodi:start="1.5244919"
       sodipodi:end="4.7049428"
       sodipodi:arc-type="arc"
       d="M 91.592238,362.0134 A 39.022415,39.027618 0 0 1 56.660974,343.65762 39.022415,39.027618 0 0 1 55.600621,304.20728 39.022415,39.027618 0 0 1 89.495407,284.00108"
       sodipodi:open="true" />
    <path
       style="opacity:0.922581;fill:none;stroke:#000000;stroke-width:6;stroke-linecap:round;stroke-linejoin:round;stroke-miterlimit:4;stroke-dasharray:none;paint-order:fill markers stroke"
       id="path2421"
       sodipodi:type="arc"
       sodipodi:cx="307.46277"
       sodipodi:cy="322.95236"
       sodipodi:rx="40"
       sodipodi:ry="40"
       sodipodi:start="4.7132574"
       sodipodi:end="1.5188977"
       sodipodi:open="true"
       sodipodi:arc-type="arc"
       d="m 307.49751,282.95238 a 40,40 0 0 1 39.95224,38.97949 40,40 0 0 1 -37.91197,40.96663" />
    <path
       style="fill:none;stroke:#000000;stroke-width:6;stroke-linecap:round;stroke-linejoin:miter;stroke-miterlimit:4;stroke-dasharray:none;stroke-opacity:1"
       d="m 90,283.75969 217.75969,-0.96126"
       id="path2427"
       sodipodi:nodetypes="cc" />
    <path
       style="fill:none;stroke:#000000;stroke-width:6;stroke-linecap:round;stroke-linejoin:miter;stroke-miterlimit:4;stroke-dasharray:none;stroke-opacity:1"
       d="m 92,362 217.71963,0.88376"
       id="path2429"
       sodipodi:nodetypes="cc" />
    <rect
       style="opacity:1;fill:#000000;stroke:none;stroke-width:2;stroke-linecap:round;stroke-linejoin:round;stroke-miterlimit:4;stroke-dasharray:none;paint-order:fill markers stroke"
       id="rect2641"
       width="70"
       height="18"
       x="280"
       y="202" />
    <path
       id="rect2645"
       style="opacity:1;fill:#000000;stroke:none;stroke-width:2;stroke-linecap:round;stroke-linejoin:round;stroke-miterlimit:4;stroke-dasharray:none;paint-order:fill markers stroke"
       d="M 295 230 C 292.23 230 290 232.23 290 235 C 290 235.34283 290.0345 235.67692 290.09961 236 L 339.90039 236 C 339.9655 235.67692 340 235.34283 340 235 C 340 232.23 337.77 230 335 230 L 295 230 z " />
    <circle
       style="opacity:1;fill:#ffffff;stroke:none;stroke-width:2;stroke-linecap:round;stroke-linejoin:round;stroke-miterlimit:4;stroke-dasharray:none;paint-order:fill markers stroke"
       id="path2647"
       cx="295"
       cy="211"
       r="5" />
    <circle
       style="opacity:1;fill:#ffffff;stroke:none;stroke-width:2;stroke-linecap:round;stroke-linejoin:round;stroke-miterlimit:4;stroke-dasharray:none;paint-order:fill markers stroke"
       id="circle2649"
       cx="315"
       cy="211"
       r="5" />
    <circle
       style="opacity:1;fill:#ffffff;stroke:none;stroke-width:2;stroke-linecap:round;stroke-linejoin:round;stroke-miterlimit:4;stroke-dasharray:none;paint-order:fill markers stroke"
       id="path2651"
       cx="336"
       cy="212"
       r="2" />
  </g>
</svg>
